<svg id="icons" xmlns="http://www.w3.org/2000/svg" viewBox="0 0 67.25 65.01"><defs><style>.cls-1{fill:#4d4d4d;}</style></defs><path class="cls-1" d="M62.59,24.45a.8.8,0,0,0,0-.15.85.85,0,0,0,0-.32.2.2,0,0,0,0-.07h0a1,1,0,0,0-.19-.34h0L51,10.14l-.09-.07,0-.07-.1,0a.93.93,0,0,0-.27-.12.58.58,0,0,0-.18,0l-.1,0H17.05l-.1,0a.72.72,0,0,0-.19,0,1,1,0,0,0-.26.12l-.1,0,0,.07s-.07,0-.09.07L4.88,23.55h0a1,1,0,0,0-.19.34h0V24a.85.85,0,0,0,0,.32.8.8,0,0,0,0,.15.9.9,0,0,0,.06.22,1.19,1.19,0,0,0,.09.15A1,1,0,0,0,4.9,25l28,30A.83.83,0,0,0,33,55a.63.63,0,0,0,.12.11h0l0,0a1,1,0,0,0,.46.12h0a1,1,0,0,0,.46-.12l0,0h0a.63.63,0,0,0,.12-.11.83.83,0,0,0,.12-.08L62.35,25a.91.91,0,0,0,.08-.13l.1-.15A.9.9,0,0,0,62.59,24.45Zm-29-6.88,12,10H21.59Zm14.07,9L35.74,16.62,49,12.3Zm-28.13,0L18.24,12.3,31.5,16.62Zm27.17,3.11L33.62,52.12,20.51,29.64ZM51,13.38l8.8,10.36L49.73,27.1ZM33.62,15.12l-10-3.26h20Zm-16.1,12L7.45,23.74l8.79-10.36ZM18,29.46,28,46.69,9.22,26.53Zm31.25,0L58,26.53,39.21,46.69Z"/></svg>