<svg id="icons" xmlns="http://www.w3.org/2000/svg" viewBox="0 0 67.25 65.01"><defs><style>.cls-1{fill:#4d4d4d;}</style></defs><path class="cls-1" d="M42.81,53.1a1.09,1.09,0,0,1-.86-.42L39.05,49l1.72-1.34,2.31,3L46,48.92l-1.4-3.49a1.08,1.08,0,0,1,.3-1.24A17.68,17.68,0,0,0,47,42.12a1.08,1.08,0,0,1,1.24-.31l3.49,1.41,1.67-2.89-3-2.32A1.08,1.08,0,0,1,50,36.78,17.46,17.46,0,0,0,50.78,34a1.09,1.09,0,0,1,.92-.89l3.73-.52V29.2l-3.73-.52a1.12,1.12,0,0,1-.92-.89A16.93,16.93,0,0,0,50,25a1.08,1.08,0,0,1,.36-1.23l3-2.32-1.67-2.89-3.49,1.41A1.1,1.1,0,0,1,47,19.62a17.77,17.77,0,0,0-2.08-2.08,1.08,1.08,0,0,1-.3-1.24L46,12.82l-2.89-1.67-2.31,3a1.1,1.1,0,0,1-1.23.35,18.36,18.36,0,0,0-2.84-.76,1.08,1.08,0,0,1-.88-.92l-.53-3.73H32l-.53,3.73a1.08,1.08,0,0,1-.89.92,18.55,18.55,0,0,0-2.83.76,1.09,1.09,0,0,1-1.23-.35l-2.31-3-2.89,1.67,1.4,3.48a1.08,1.08,0,0,1-.3,1.24,17.77,17.77,0,0,0-2.08,2.08,1.1,1.1,0,0,1-1.24.31l-3.49-1.41L13.9,21.41l3,2.32A1.09,1.09,0,0,1,17.23,25a16,16,0,0,0-.76,2.83,1.12,1.12,0,0,1-.93.89l-3.72.52v3.34l3.72.52a1.09,1.09,0,0,1,.93.89,16.49,16.49,0,0,0,.76,2.83A1.1,1.1,0,0,1,16.87,38l-3,2.32,1.67,2.89,3.49-1.41a1.09,1.09,0,0,1,1.24.31,17.68,17.68,0,0,0,2.08,2.07,1.08,1.08,0,0,1,.3,1.24l-1.4,3.49,2.89,1.67,2.31-3L28.2,49l-2.9,3.72a1.07,1.07,0,0,1-1.4.27l-4.54-2.62A1.08,1.08,0,0,1,18.9,49l1.47-3.65c-.42-.38-.83-.79-1.21-1.21L15.51,45.6a1.09,1.09,0,0,1-1.35-.47L11.54,40.6a1.1,1.1,0,0,1,.27-1.41l3.11-2.42c-.17-.55-.32-1.11-.44-1.66l-3.91-.55a1.08,1.08,0,0,1-.93-1.08V28.25a1.1,1.1,0,0,1,.93-1.08l3.91-.55c.12-.55.27-1.1.44-1.65l-3.11-2.43a1.08,1.08,0,0,1-.27-1.4l2.62-4.53a1.09,1.09,0,0,1,1.35-.47l3.65,1.48c.38-.42.79-.83,1.21-1.22L18.9,12.75a1.08,1.08,0,0,1,.46-1.35L23.9,8.78a1.09,1.09,0,0,1,1.4.28l2.43,3.11a16.12,16.12,0,0,1,1.65-.45l.55-3.9A1.08,1.08,0,0,1,31,6.88h5.23a1.08,1.08,0,0,1,1.08.94l.55,3.9a16.85,16.85,0,0,1,1.65.45L42,9.06a1.09,1.09,0,0,1,1.4-.28l4.54,2.62a1.09,1.09,0,0,1,.46,1.35L46.88,16.4c.42.39.82.8,1.21,1.22l3.65-1.48a1.09,1.09,0,0,1,1.35.47l2.62,4.53a1.09,1.09,0,0,1-.27,1.4L52.33,25c.17.55.32,1.1.44,1.65l3.9.55a1.1,1.1,0,0,1,.94,1.08v5.23a1.08,1.08,0,0,1-.94,1.08l-3.9.55c-.12.55-.27,1.11-.44,1.66l3.11,2.42a1.11,1.11,0,0,1,.27,1.41l-2.62,4.53a1.09,1.09,0,0,1-1.35.47l-3.65-1.48c-.39.42-.79.83-1.21,1.21L48.35,49a1.09,1.09,0,0,1-.46,1.35L43.35,53A1.08,1.08,0,0,1,42.81,53.1Z"/><path class="cls-1" d="M47.8,32a1.09,1.09,0,0,1-1.09-1.09A13.1,13.1,0,0,0,33.62,17.78a1.09,1.09,0,1,1,0-2.18A15.29,15.29,0,0,1,48.89,30.87,1.09,1.09,0,0,1,47.8,32Z"/><path class="cls-1" d="M27.15,44.57a1.11,1.11,0,0,1-.5-.12,15.22,15.22,0,0,1-8.29-13.58,1.09,1.09,0,0,1,2.18,0,13,13,0,0,0,7.11,11.64A1.09,1.09,0,0,1,28.12,44,1.07,1.07,0,0,1,27.15,44.57Z"/><path class="cls-1" d="M38,58.13H35.81V39.21a2.2,2.2,0,0,1,1.26-2,6.87,6.87,0,0,0,4.19-6.36A7.65,7.65,0,0,0,38,24.6v5.18A2.19,2.19,0,0,1,35.81,32H31.44a2.19,2.19,0,0,1-2.18-2.18V24.61A7.64,7.64,0,0,0,26,30.87a6.87,6.87,0,0,0,4.19,6.36,2.2,2.2,0,0,1,1.26,2V58.13H29.26V39.21a9.08,9.08,0,0,1-5.45-8.34A9.84,9.84,0,0,1,28,22.81a2.18,2.18,0,0,1,3.42,1.8v5.17h4.37V24.61a2.18,2.18,0,0,1,3.42-1.8,9.84,9.84,0,0,1,4.21,8.06A9.05,9.05,0,0,1,38,39.19Z"/></svg>